<?xml version="1.0" encoding="UTF-8"?>
<svg id="COMARCH" xmlns="http://www.w3.org/2000/svg" viewBox="0 0 480.00009781 73.71289062">
  <path d="M101.56308609,0c-20.35595703,0-36.85693359,16.50097656-36.85693359,36.85644531,0,20.35498047,16.50097656,36.85644531,36.85693359,36.85644531,20.35498047,0,36.85595703-16.50146484,36.85595703-36.85644531C138.41904312,16.50097656,121.91806656,0,101.56308609,0ZM101.56259781,58.97021484c-12.21337891,0-22.11376953-9.90087891-22.11376953-22.11376953,0-12.21337891,9.90039062-22.11376953,22.11376953-22.11376953,12.21289062,0,22.11376953,9.90039062,22.11376953,22.11376953,0,12.21289062-9.90087891,22.11376953-22.11376953,22.11376953Z"/>
  <path d="M207.64902359,4.15380859c-.24853516-1.76660156-1.75976562-3.08056641-3.54345703-3.08056641h-8.16455078c-1.55029297,0-2.92382812.99853516-3.40283203,2.47265625l-11.38183594,35.02880859-11.38183594-35.02880859c-.47900391-1.47412109-1.85302734-2.47265625-3.40332031-2.47265625h-8.1640625c-1.78369141,0-3.29492188,1.31396484-3.54345703,3.08056641l-9.05273438,64.40917969c-.30224609,2.15332031,1.36914062,4.07617188,3.54345703,4.07617188h7.05126953c1.78369141,0,3.29541016-1.31347656,3.54345703-3.08007812l5.01513672-35.68261719,8.95898438,27.57373047,2.4609375,7.57421875c1.56494141,4.81689453,8.37939453,4.81689453,9.94433594,0l2.4609375-7.57373047,8.95898438-27.57324219,5.01416016,35.68164062c.24853516,1.76660156,1.75976562,3.08007812,3.54394531,3.08007812h7.05078125c2.17431641,0,3.84619141-1.92285156,3.54345703-4.07617188l-9.05175781-64.40917969Z"/>
  <path d="M263.72031265,3.54589844c-.47900391-1.47412109-1.85302734-2.47265625-3.40332031-2.47265625h-11.91503906c-1.55029297,0-2.92431641.99853516-3.40332031,2.47265625l-20.92773438,64.40966797c-.75146484,2.31152344.97216797,4.68359375,3.40283203,4.68359375h7.34179688c1.54980469,0,2.92382812-.99804688,3.40283203-2.47216797l5.01025391-15.41943359h22.26220703l5.00976562,15.41943359c.47900391,1.47412109,1.85302734,2.47216797,3.40332031,2.47216797h7.34130859c2.43115234,0,4.15429688-2.37207031,3.40332031-4.68359375L263.72031265,3.54589844ZM247.87900406,40.43505859l6.48046875-19.94580078,6.48095703,19.94580078h-12.96142578Z"/>
  <path d="M476.42148453,1.07324219h-7.15625c-1.9765625,0-3.57861328,1.60205078-3.57861328,3.57861328v25.04785156h-25.04785156V4.65185547c0-1.9765625-1.60205078-3.57861328-3.57861328-3.57861328h-7.15625c-1.9765625,0-3.57861328,1.60205078-3.57861328,3.57861328v64.40917969c0,1.9765625,1.60205078,3.578125,3.57861328,3.578125h7.15625c1.9765625,0,3.57861328-1.6015625,3.57861328-3.578125v-25.04785156h25.04785156v25.04785156c0,1.9765625,1.60205078,3.57861328,3.57861328,3.57861328l7.15625-.00048828c1.9765625,0,3.57861328-1.6015625,3.57861328-3.578125V4.65185547c0-1.9765625-1.60205078-3.57861328-3.57861328-3.57861328Z"/>
  <path d="M36.85654312,14.74267578c4.94140625,0,9.50195312,1.62402344,13.18261719,4.36425781,1.44628906,1.07666016,3.47216797.89013672,4.74707031-.38476562l5.25878906-5.25927734c1.55664062-1.55664062,1.41796875-4.13037109-.30664062-5.49804688C53.14169937,2.73242188,44.71298843-.28955078,35.56894546.02197266,16.78916031.66210938,1.23496109,15.75390625.07285171,34.50878906c-1.32714844,21.41894531,15.65136719,39.20410156,36.78369141,39.20410156,8.63476562,0,16.57421875-2.97119141,22.85595703-7.94482422,1.73632812-1.37451172,1.89794922-3.953125.33203125-5.51855469l-5.25927734-5.25976562c-1.28662109-1.28613281-3.31884766-1.44189453-4.78027344-.35839844-4.40136719,3.26367188-10.05419922,4.93359375-16.11035156,4.14550781-9.95703125-1.29492188-17.91552734-9.43164062-19.01367188-19.41210938-1.46777344-13.33642578,8.93603516-24.62207031,21.97558594-24.62207031Z"/>
  <path d="M391.31943374,14.74267578c4.94140625,0,9.50146484,1.62402344,13.18212891,4.36425781,1.44677734,1.07666016,3.47216797.89013672,4.74755859-.38476562l5.25878906-5.25927734c1.55664062-1.55664062,1.41748047-4.13037109-.30712891-5.49804688-6.59619141-5.23242188-15.02539062-8.25439453-24.16894531-7.94287109-18.78027344.64013672-34.33398438,15.73193359-35.49609375,34.48681641-1.32763672,21.41894531,15.65087891,39.20410156,36.78369141,39.20410156,8.63476562,0,16.57421875-2.97119141,22.85595703-7.94482422,1.73583984-1.37451172,1.89794922-3.953125.33203125-5.51855469l-5.25976562-5.25976562c-1.28613281-1.28613281-3.31884766-1.44189453-4.77978516-.35839844-4.40136719,3.26367188-10.05419922,4.93359375-16.11083984,4.14599609-9.95703125-1.29541016-17.91552734-9.43212891-19.01367188-19.41259766-1.46728516-13.33642578,8.93652344-24.62207031,21.97607422-24.62207031Z"/>
  <path d="M331.35605484,45.95458984c8.71875-3.44433594,14.86669922-11.98583984,14.72412109-21.96191406-.18310547-12.81201172-11.0390625-22.91943359-23.85253906-22.91943359h-22.66308594c-1.97607422,0-3.578125,1.60205078-3.578125,3.57861328v64.40917969c0,1.9765625,1.60205078,3.57861328,3.578125,3.57861328h7.15673828c1.97607422,0,3.578125-1.60205078,3.578125-3.57861328v-21.46923828h4.77001953l17.12695312,23.57275391c.67333984.92675781,1.74951172,1.47460938,2.89501953,1.47460938h8.62988281c2.92382812,0,4.61376953-3.31591797,2.89501953-5.68164062l-15.26025391-21.00292969ZM322.82333999,33.27783203l-12.52392578.00048828V15.38671875l12.52392578.00048828c4.94140625,0,8.94580078,4.00488281,8.94580078,8.9453125s-4.00439453,8.9453125-8.94580078,8.9453125Z"/>
</svg>