<?xml version="1.0" encoding="UTF-8" standalone="no"?>
<!-- Created with Inkscape (http://www.inkscape.org/) -->

<svg
   width="119.00125mm"
   height="88.638969mm"
   viewBox="0 0 119.00125 88.638969"
   version="1.1"
   id="svg1"
   xml:space="preserve"
   xmlns="http://www.w3.org/2000/svg"
   xmlns:svg="http://www.w3.org/2000/svg"><defs
     id="defs1" /><g
     id="layer1"
     transform="translate(-44.136538,-63.298851)"><path
       style="fill:#5d3fd3;fill-opacity:1"
       d="m 101.38022,151.00322 c -3.225287,-1.63418 -10.622927,-6.21635 -11.261757,-6.97564 -0.0728,-0.0865 -1.02526,-0.82198 -2.11667,-1.63445 -6.395179,-4.76071 -13.956242,-12.79215 -18.115608,-19.2426 -3.547575,-5.50166 -3.955811,-5.07055 4.834668,-5.1056 4.321344,-0.0172 7.95062,-0.0158 8.06505,0.003 0.11444,0.019 0.54348,-0.71105 0.95344,-1.62232 0.40995,-0.91127 1.01426,-2.25216 1.34289,-2.97977 1.61227,-3.56956 2.97361,-3.16713 4.88493,1.44408 0.5521,1.33199 1.05665,2.36898 1.12121,2.30441 0.0646,-0.0646 0.52715,-2.12501 1.02798,-4.57877 2.96516,-14.527682 2.75845,-13.854092 4.25149,-13.854092 0.58306,0 1.42354,0.62121 1.42354,1.05216 0,0.12134 0.41104,2.404782 0.91343,5.074332 0.50238,2.66954 1.330687,7.23497 1.840677,10.14538 1.69515,9.67383 1.17657,9.67383 3.72259,0 1.43582,-5.45553 1.50497,-5.62314 2.41399,-5.85129 1.43903,-0.36117 1.78048,0.10409 3.30553,4.50409 1.63132,4.70661 1.8682,4.91889 3.33736,2.99083 1.15175,-1.51151 7.20873,-9.20906 7.67328,-9.75163 0.33247,-0.38832 0.19981,-0.55623 -1.2341,-1.56207 -0.88364,-0.61984 -1.57533,-1.15141 -1.53709,-1.18128 0.32042,-0.25025 10.82964,-4.14133 10.92569,-4.04527 0.12304,0.12304 -1.21283,11.35339 -1.37567,11.56492 -0.0457,0.0593 -0.77224,-0.49156 -1.61459,-1.22421 -1.53154,-1.3321 -1.53154,-1.3321 -2.97892,0.53162 -0.79607,1.02504 -2.58056,3.30234 -3.96554,5.06067 -1.38498,1.75833 -2.91303,3.70297 -3.39567,4.32143 -2.11306,2.70774 -6.34149,1.50919 -7.70089,-2.18281 -0.42864,-1.16416 -0.78514,-2.04836 -0.79222,-1.96487 -0.007,0.0835 -0.80342,3.23864 -1.76965,7.01145 -0.96624,3.77282 -1.81214,7.17992 -1.87978,7.57133 -0.4767,2.75851 -3.20332,2.08671 -3.757467,-0.92578 -0.29287,-1.59211 -0.70231,-3.7809 -1.4695,-7.85567 -0.88302,-4.68995 -1.22946,-6.5694 -1.46313,-7.9375 -0.894,-5.23423 -0.73547,-5.39281 -2.24823,2.24896 -1.48666,7.50996 -1.71368,8.06979 -3.2724,8.06979 -0.88373,0 -1.53356,-0.97669 -2.84385,-4.27428 -1.4812,-3.72775 -1.29376,-3.65944 -2.60781,-0.95033 -1.05833,2.1819 -1.05833,2.1819 -2.88152,2.31419 -1.823191,0.1323 -1.823191,0.1323 -0.17021,2.11667 3.03062,3.6382 9.53458,9.73576 12.9736,12.16296 4.331847,3.05733 6.590347,4.11433 8.307327,3.88791 3.9345,-0.51886 14.67783,-9.22179 20.8807,-16.91499 1.0099,-1.25255 1.0099,-1.25255 -3.37344,-1.25255 -2.41083,0 -4.38334,-0.0696 -4.38334,-0.15463 0,-1.95112 2.57527,-3.21671 6.80661,-3.34506 5.15257,-0.15629 4.68486,0.12505 6.90558,-4.15388 5.55406,-10.7017 3.83249,-20.470462 -4.31948,-24.510112 -7.44385,-3.68876 -14.12411,-0.46603 -22.20961,10.714462 -0.9707,1.34228 -0.86818,1.36213 -2.13205,-0.412802 -0.58209,-0.81745 -1.1774,-1.62049 -1.32292,-1.78452 -0.14552,-0.16404 -0.59035,-0.77851 -0.98851,-1.36549 -12.962937,-19.11061 -34.597044,-3.7389 -24.114457,17.134072 0.491478,0.97864 0.893596,1.90137 0.893596,2.05053 0,0.17655 -1.930909,0.27118 -5.533089,0.27118 -6.346901,0 -6.52012,-0.19726 -8.363867,-9.525 -0.49588,-2.50871 -1.938476,-3.79702 -6.079086,-5.42894 -4.093238,-1.613242 -6.416272,-3.604742 -7.95838,-6.822582 -1.19835,-2.50054 -1.197106,-3.17046 0.0038,-2.06013 1.099649,1.01669 3.903815,2.17846 7.455439,3.08881 2.001178,0.51294 3.76558,0.99388 3.920893,1.06877 0.155313,0.0749 -0.134331,-0.23591 -0.643654,-0.69064 -0.509323,-0.45473 -2.592917,-1.64997 -4.630209,-2.6561 -7.430268,-3.66946 -10.175341,-7.27051 -10.863131,-14.25049 -0.202483,-2.05488 0.108182,-2.57839 0.741706,-1.24988 0.64991,1.36287 3.242921,4.0022 5.229415,5.32282 1.841428,1.22418 10.845136,5.52967 10.845136,5.18604 0,-0.2957 -3.385662,-2.78247 -5.291667,-3.88672 -7.98749,-4.62759 -11.18777,-11.32232 -8.975199,-18.77539 0.704145,-2.37192 0.827859,-2.412476 1.376687,-0.4513 0.956326,3.41732 4.652575,7.7685 8.392262,9.87926 0.363802,0.20534 0.840052,0.50988 1.058333,0.67677 0.218281,0.16689 1.927736,1.08889 3.798788,2.04889 4.663688,2.39286 8.107462,5.12674 8.107462,6.43622 0,0.21983 0.751878,-0.24907 1.785938,-1.11378 9.234165,-7.72182 22.712917,-6.24012 31.227334,3.43278 1.10914,1.26005 1.10914,1.26005 3.03179,-0.71005 9.06889,-9.29269 22.58182,-10.244 31.26064,-2.20074 0.9065,0.84011 0.78807,0.8751 1.74474,-0.51539 1.05076,-1.52723 3.19702,-3.0295 7.90922,-5.53608 8.05879,-4.28673 12.8915,-9.24558 12.98502,-13.32392 0.049,-2.138071 1.52502,1.86378 1.77407,4.81002 0.51684,6.11416 -2.86538,11.29874 -10.29012,15.77366 -2.29851,1.38533 -4.82985,3.38506 -4.58937,3.62555 0.0779,0.0779 0.29341,0.0236 0.47883,-0.12076 0.18542,-0.14436 2.12306,-1.06562 4.30587,-2.04727 6.1736,-2.77634 9.03235,-4.8779 11.01204,-8.09531 1.06506,-1.73094 1.13291,-1.67565 0.92996,0.75782 -0.59686,7.15693 -3.41293,10.73718 -11.56973,14.70933 -1.97806,0.96327 -3.84943,2.02065 -4.15859,2.34974 -1.19597,1.27305 7.6132,-1.30831 10.14414,-2.97255 1.90155,-1.25038 1.93384,-1.2313 1.20675,0.71292 -1.2666,3.38686 -3.84133,5.73223 -8.32807,7.586172 -4.88503,2.01852 -5.33411,2.52101 -6.38746,7.14707 -2.36633,10.39244 -9.93707,21.85652 -20.02736,30.32666 -0.83256,0.69888 -1.84459,1.58247 -2.24896,1.96355 -3.81475,3.59495 -16.26123,11.53012 -18.05143,11.50856 -0.22598,-0.003 -1.23668,-0.42337 -2.24599,-0.93476 z"
       id="path1" /></g></svg>
