<?xml version="1.0" encoding="UTF-8"?>
<svg id="COMARCH" xmlns="http://www.w3.org/2000/svg" viewBox="0 0 959.9999524 147.42579945">
  <defs>
    <style>
      .cls-1 {
        fill: #fff;
      }
    </style>
  </defs>
  <path class="cls-1" d="M203.12592897.0000182C162.41474732.0000182,129.41230592,33.00197132,129.41230592,73.71290882c0,40.71044922,33.00244141,73.71289062,73.71362305,73.71289062,40.71044922,0,73.7121582-33.00244141,73.7121582-73.71289062C276.83808717,33.00197132,243.83637818.0000182,203.12592897.0000182ZM203.12544068,117.94044789c-24.42651367,0-44.22802734-19.80126953-44.22802734-44.22753906s19.80151367-44.22753906,44.22802734-44.22753906c24.42602539,0,44.22753906,19.80126953,44.22753906,44.22753906s-19.80151367,44.22753906-44.22753906,44.22753906Z"/>
  <path class="cls-1" d="M415.29780397,8.30763539c-.49658203-3.53271484-3.51928711-6.16064453-7.08691406-6.16064453h-16.32836914c-3.10058594,0-5.84838867,1.99658203-6.80639648,4.9453125l-22.76342773,70.05761719-22.76367188-70.05761719c-.95800781-2.94873047-3.70581055-4.9453125-6.80615234-4.9453125h-16.328125c-3.56762695,0-6.59033203,2.62744141-7.08691406,6.16064453l-18.10546875,128.81884766c-.60522461,4.30615234,2.73828125,8.15234375,7.08691406,8.15234375h14.10229492c3.56762695,0,6.59057617-2.62744141,7.0871582-6.16064453l10.0300293-71.36572266,17.91821289,55.1484375,4.921875,15.1484375c3.12988281,9.6328125,16.75830078,9.6328125,19.88818359,0l4.92163086-15.14746094,17.91821289-55.14697266,10.02880859,71.36328125c.49658203,3.53320312,3.51953125,6.16064453,7.0871582,6.16064453h14.10205078c4.34838867,0,7.69213867-3.84619141,7.08691406-8.15234375l-18.10400391-128.81884766Z"/>
  <path class="cls-1" d="M527.44062623,7.09230335c-.95825195-2.94873047-3.70605469-4.9453125-6.80639648-4.9453125h-23.83032227c-3.1003418,0-5.84814453,1.99658203-6.80639648,4.9453125l-41.85595703,128.81835938c-1.50244141,4.62402344,1.94433594,9.36816406,6.80639648,9.36816406h14.68261719c3.10058594,0,5.84838867-1.99609375,6.80639648-4.94482422l10.02001953-30.83837891h44.5246582l10.01977539,30.83837891c.95825195,2.94873047,3.70605469,4.94482422,6.80639648,4.94482422h14.68261719c4.86206055,0,8.30883789-4.74414062,6.80639648-9.36816406L527.44062623,7.09230335ZM495.75800904,80.8696471l12.96142578-39.890625,12.96118164,39.890625h-25.92260742Z"/>
  <path class="cls-1" d="M952.84345826,2.14699085h-14.31323242c-3.95239258,0-7.15673828,3.20410156-7.15673828,7.15673828v50.09619141h-50.09619141V9.30372914c0-3.95263672-3.20410156-7.15673828-7.15649414-7.15673828h-14.31323242c-3.95239258,0-7.15649414,3.20410156-7.15649414,7.15673828v128.81835938c0,3.95263672,3.20410156,7.15673828,7.15649414,7.15673828h14.31323242c3.95239258,0,7.15649414-3.20410156,7.15649414-7.15673828v-50.09570312h50.09619141v50.09619141c0,3.95214844,3.2043457,7.15625,7.15673828,7.15625h14.31323242c3.95239258,0,7.15649414-3.20410156,7.15649414-7.15625V9.30372914c0-3.95263672-3.20410156-7.15673828-7.15649414-7.15673828Z"/>
  <path class="cls-1" d="M73.71333131,29.48536976c9.88305664,0,19.00317383,3.24755859,26.36474609,8.72851562,2.89282227,2.15332031,6.94433594,1.77978516,9.49438477-.77001953l10.51806641-10.51806641c3.11303711-3.11279297,2.83520508-8.26025391-.61401367-10.99609375C106.28339967,5.46486195,89.42573365-.57957165,71.138136.04396351,33.57832154,1.32423695,2.46992311,31.5078307.14570436,69.0180846c-2.65429688,42.83740234,31.30249023,78.40771484,73.56787109,78.40771484,17.26928711,0,33.1484375-5.94189453,45.71191406-15.88916016,3.47192383-2.74902344,3.79541016-7.90625.6640625-11.03759766l-10.51928711-10.51953125c-2.57275391-2.57275391-6.63769531-2.88427734-9.56030273-.71679688-8.80249023,6.52734375-20.10791016,9.8671875-32.22119141,8.29150391-19.9140625-2.59033203-35.83081055-18.86328125-38.02709961-38.82470703-2.93481445-26.67333984,17.87231445-49.24414062,43.95166016-49.24414062Z"/>
  <path class="cls-1" d="M782.63886842,29.48536976c9.88305664,0,19.00317383,3.24804688,26.36474609,8.72851562,2.89257812,2.15332031,6.94433594,1.78027344,9.49414062-.77001953l10.51806641-10.51806641c3.11328125-3.11279297,2.83544922-8.26025391-.61376953-10.99609375-13.19335938-10.46484375-30.05078125-16.50927734-48.33837891-15.88574219-37.56005859,1.28027344-68.66821289,31.46435547-70.99243164,68.97412109-2.65454102,42.83740234,31.30249023,78.40771484,73.56787109,78.40771484,17.26928711,0,33.14819336-5.94189453,45.71166992-15.88916016,3.47216797-2.74902344,3.7956543-7.90625.6640625-11.03759766l-10.51904297-10.51904297c-2.57275391-2.57324219-6.63769531-2.88476562-9.56030273-.71728516-8.80249023,6.52734375-20.10791016,9.8671875-32.22119141,8.29150391-19.9140625-2.59033203-35.83105469-18.86328125-38.02709961-38.82470703-2.93481445-26.67285156,17.87231445-49.24414062,43.95166016-49.24414062Z"/>
  <path class="cls-1" d="M662.71235475,91.90919789c17.43725586-6.88818359,29.73364258-23.97167969,29.44824219-43.92431641-.36645508-25.62304688-22.07861328-45.83789062-47.70483398-45.83789062h-45.32617188c-3.95263672,0-7.15673828,3.20410156-7.15673828,7.15673828v128.81884766c0,3.95214844,3.20410156,7.15625,7.15673828,7.15625h14.31298828c3.95263672,0,7.15673828-3.20410156,7.15673828-7.15625l-.00048828-42.93945312h9.5402832l34.25390625,47.14550781c1.34643555,1.85351562,3.49902344,2.95019531,5.78979492,2.95019531h17.26025391c5.84741211,0,9.22680664-6.63232422,5.78955078-11.36328125l-30.52026367-42.00634766ZM645.6471692,66.55617054h-25.04785156V30.7734557l25.04785156.00048828c9.88183594,0,17.89111328,8.01074219,17.89111328,17.89111328s-8.00927734,17.89111328-17.89111328,17.89111328Z"/>
</svg>